<?xml version="1.0" encoding="UTF-8"?>
<!--Generator: Apple Native CoreSVG 175.5-->
<!DOCTYPE svg
PUBLIC "-//W3C//DTD SVG 1.1//EN"
       "http://www.w3.org/Graphics/SVG/1.1/DTD/svg11.dtd">
<svg version="1.1" xmlns="http://www.w3.org/2000/svg" xmlns:xlink="http://www.w3.org/1999/xlink" width="12.7222" height="7.80029">
 <g>
  <rect height="7.80029" opacity="0" width="12.7222" x="0" y="0"/>
  <path d="M6.36475 7.80029C6.54785 7.80029 6.73096 7.72705 6.85547 7.58789L12.5244 1.77979C12.6489 1.65527 12.7222 1.49414 12.7222 1.31104C12.7222 0.930176 12.4365 0.637207 12.0557 0.637207C11.8726 0.637207 11.7041 0.710449 11.5796 0.827637L5.96924 6.5625L6.75293 6.5625L1.14258 0.827637C1.02539 0.710449 0.856934 0.637207 0.666504 0.637207C0.285645 0.637207 0 0.930176 0 1.31104C0 1.49414 0.0732422 1.65527 0.197754 1.78711L5.8667 7.58789C6.00586 7.72705 6.17432 7.80029 6.36475 7.80029Z" fill="#fff" fill-opacity="0.85"/>
 </g>
</svg>
