<?xml version="1.0" encoding="UTF-8"?>
<!--Generator: Apple Native CoreSVG 175.5-->
<!DOCTYPE svg
PUBLIC "-//W3C//DTD SVG 1.1//EN"
       "http://www.w3.org/Graphics/SVG/1.1/DTD/svg11.dtd">
<svg version="1.1" xmlns="http://www.w3.org/2000/svg" xmlns:xlink="http://www.w3.org/1999/xlink" width="17.71" height="12.8584">
 <g>
  <rect height="12.8584" opacity="0" width="17.71" x="0" y="0"/>
  <path d="M4.99219 1.82812L16.998 1.82812C17.3936 1.82812 17.71 1.52051 17.71 1.125C17.71 0.720703 17.3936 0.413086 16.998 0.413086L4.99219 0.413086C4.58789 0.413086 4.28027 0.720703 4.28027 1.125C4.28027 1.52051 4.58789 1.82812 4.99219 1.82812ZM4.99219 7.14551L16.998 7.14551C17.3936 7.14551 17.71 6.8291 17.71 6.43359C17.71 6.03809 17.3936 5.73047 16.998 5.73047L4.99219 5.73047C4.58789 5.73047 4.28027 6.03809 4.28027 6.43359C4.28027 6.8291 4.58789 7.14551 4.99219 7.14551ZM4.99219 12.4541L16.998 12.4541C17.3936 12.4541 17.71 12.1465 17.71 11.751C17.71 11.3467 17.3936 11.0391 16.998 11.0391L4.99219 11.0391C4.58789 11.0391 4.28027 11.3467 4.28027 11.751C4.28027 12.1465 4.58789 12.4541 4.99219 12.4541ZM1.10742 2.22363C1.72266 2.22363 2.21484 1.73145 2.21484 1.125C2.21484 0.509766 1.72266 0.0175781 1.10742 0.0175781C0.492188 0.0175781 0 0.509766 0 1.125C0 1.73145 0.492188 2.22363 1.10742 2.22363ZM1.10742 7.54102C1.72266 7.54102 2.21484 7.04883 2.21484 6.43359C2.21484 5.81836 1.72266 5.32617 1.10742 5.32617C0.492188 5.32617 0 5.81836 0 6.43359C0 7.04883 0.492188 7.54102 1.10742 7.54102ZM1.10742 12.8584C1.72266 12.8584 2.21484 12.3574 2.21484 11.751C2.21484 11.1357 1.72266 10.6436 1.10742 10.6436C0.492188 10.6436 0 11.1357 0 11.751C0 12.3574 0.492188 12.8584 1.10742 12.8584Z" fill="#000" fill-opacity="0.85"/>
 </g>
</svg>
