<svg width="12" height="8" viewBox="0 0 12 8" fill="none" xmlns="http://www.w3.org/2000/svg">
<g clip-path="url(#clip0_327_41)">
<path d="M11.6895 1.62012C11.8057 1.51074 11.874 1.35352 11.874 1.17578C11.874 0.820308 11.6074 0.553708 11.252 0.553708C11.0742 0.553708 10.9102 0.615238 10.8076 0.731448L5.57129 6.07715L6.30273 6.07715L1.06642 0.731449C0.957023 0.615239 0.792923 0.553709 0.622023 0.553709C0.266623 0.553709 2.32807e-05 0.820309 2.33118e-05 1.17578C2.33273e-05 1.35352 0.0683226 1.51074 0.184523 1.62012L5.47558 7.03418C5.59179 7.16406 5.76269 7.23926 5.93359 7.23926C6.11132 7.23926 6.27539 7.16406 6.39843 7.03418L11.6895 1.62012Z" fill="black"/>
</g>
<defs>
<clipPath id="clip0_327_41">
<rect width="11.874" height="7.23926" fill="white" transform="translate(11.874 7.23926) rotate(180)"/>
</clipPath>
</defs>
</svg>
