<?xml version="1.0" encoding="UTF-8"?>
<!--Generator: Apple Native CoreSVG 175.5-->
<!DOCTYPE svg
PUBLIC "-//W3C//DTD SVG 1.1//EN"
       "http://www.w3.org/Graphics/SVG/1.1/DTD/svg11.dtd">
<svg version="1.1" xmlns="http://www.w3.org/2000/svg" xmlns:xlink="http://www.w3.org/1999/xlink" width="11.498" height="14.6631">
 <g>
  <rect height="14.6631" opacity="0" width="11.498" x="0" y="0"/>
  <path d="M2.11914 14.6562L9.37891 14.6562C10.7939 14.6562 11.498 13.9385 11.498 12.5166L11.498 6.30957L6.54883 6.30957C5.67383 6.30957 5.25684 5.89258 5.25684 5.01758L5.25684 0L2.11914 0C0.710938 0 0 0.724609 0 2.14648L0 12.5166C0 13.9453 0.704102 14.6562 2.11914 14.6562ZM6.56934 5.37305L11.416 5.37305C11.375 5.09277 11.1768 4.81934 10.8486 4.48438L7.08203 0.649414C6.76074 0.321289 6.48047 0.123047 6.19336 0.0751953L6.19336 5.00391C6.19336 5.25 6.31641 5.37305 6.56934 5.37305Z" fill="#505c80"/>
 </g>
</svg>