<?xml version="1.0" encoding="UTF-8"?>
<!--Generator: Apple Native CoreSVG 175.5-->
<!DOCTYPE svg
        PUBLIC "-//W3C//DTD SVG 1.1//EN"
        "http://www.w3.org/Graphics/SVG/1.1/DTD/svg11.dtd">
<svg version="1.1" xmlns="http://www.w3.org/2000/svg" xmlns:xlink="http://www.w3.org/1999/xlink" width="14.417"
     height="17.2334">
    <g>
        <rect height="17.2334" opacity="0" width="14.417" x="0" y="0"/>
        <path d="M2.91895 9.37891C3.10352 9.3584 3.28125 9.34473 3.45898 9.34473C3.64355 9.34473 3.82129 9.3584 4.01953 9.37891L4.01953 3.45215C4.01953 2.77539 4.38184 2.38574 5.09277 2.38574L8.13477 2.38574L8.13477 6.35742C8.13477 7.21875 8.56543 7.64258 9.41992 7.64258L13.3164 7.64258L13.3164 13.7812C13.3164 14.4648 12.9541 14.8408 12.2432 14.8408L7.72461 14.8408C7.63574 15.2305 7.48535 15.6064 7.28711 15.9414L12.2979 15.9414C13.7129 15.9414 14.417 15.2236 14.417 13.8018L14.417 7.59473C14.417 6.71289 14.3145 6.33008 13.7676 5.76953L10.001 1.93457C9.48145 1.40137 9.05078 1.28516 8.28516 1.28516L5.03809 1.28516C3.62988 1.28516 2.91895 2.00977 2.91895 3.43164ZM9.16699 6.22754L9.16699 2.59766L13.1045 6.61035L9.54297 6.61035C9.26953 6.61035 9.16699 6.50098 9.16699 6.22754ZM3.47266 17.2334C5.35254 17.2334 6.94531 15.6543 6.94531 13.7607C6.94531 11.8535 5.37988 10.2881 3.47266 10.2881C1.56543 10.2881 0 11.8535 0 13.7607C0 15.668 1.56543 17.2334 3.47266 17.2334ZM3.47266 15.9346C3.21973 15.9346 3.05566 15.7637 3.05566 15.5176L3.05566 14.1777L1.71582 14.1777C1.46973 14.1777 1.29883 14.0137 1.29883 13.7607C1.29883 13.5078 1.46973 13.3369 1.71582 13.3369L3.05566 13.3369L3.05566 12.0039C3.05566 11.7578 3.21973 11.5869 3.47266 11.5869C3.72559 11.5869 3.88965 11.7578 3.88965 12.0039L3.88965 13.3369L5.22266 13.3369C5.47559 13.3369 5.64648 13.5078 5.64648 13.7607C5.64648 14.0137 5.47559 14.1777 5.22266 14.1777L3.88965 14.1777L3.88965 15.5176C3.88965 15.7637 3.72559 15.9346 3.47266 15.9346Z"
              fill="#000000" fill-opacity="0.85"/>
    </g>
</svg>
