<?xml version="1.0" encoding="UTF-8"?>
<!--Generator: Apple Native CoreSVG 175.5-->
<!DOCTYPE svg
PUBLIC "-//W3C//DTD SVG 1.1//EN"
       "http://www.w3.org/Graphics/SVG/1.1/DTD/svg11.dtd">
<svg version="1.1" xmlns="http://www.w3.org/2000/svg" xmlns:xlink="http://www.w3.org/1999/xlink" width="24.0205" height="15.0732">
 <g>
  <rect height="15.0732" opacity="0" width="24.0205" x="0" y="0"/>
  <path d="M12.0146 15.0732C19.1162 15.0732 24.0205 9.33398 24.0205 7.54102C24.0205 5.73926 19.1074 0.00878906 12.0146 0.00878906C5.00977 0.00878906 0 5.73926 0 7.54102C0 9.33398 5.00098 15.0732 12.0146 15.0732ZM12.0146 13.6846C6.22266 13.6846 1.53809 8.78027 1.53809 7.54102C1.53809 6.49512 6.22266 1.39746 12.0146 1.39746C17.7803 1.39746 22.4824 6.49512 22.4824 7.54102C22.4824 8.78027 17.7803 13.6846 12.0146 13.6846ZM12.0146 12.4629C14.748 12.4629 16.9453 10.2217 16.9453 7.54102C16.9453 4.79004 14.748 2.61914 12.0146 2.61914C9.26367 2.61914 7.05762 4.79004 7.06641 7.54102C7.08398 10.2217 9.26367 12.4629 12.0146 12.4629ZM12.0146 9.17578C11.1006 9.17578 10.3623 8.4375 10.3623 7.54102C10.3623 6.63574 11.1006 5.90625 12.0146 5.90625C12.9199 5.90625 13.6582 6.63574 13.6582 7.54102C13.6582 8.4375 12.9199 9.17578 12.0146 9.17578Z" fill="#000000" fill-opacity="0.85"/>
 </g>
</svg>
