<?xml version="1.0" encoding="UTF-8"?>
<!--Generator: Apple Native CoreSVG 175.5-->
<!DOCTYPE svg
PUBLIC "-//W3C//DTD SVG 1.1//EN"
       "http://www.w3.org/Graphics/SVG/1.1/DTD/svg11.dtd">
<svg version="1.1" xmlns="http://www.w3.org/2000/svg" xmlns:xlink="http://www.w3.org/1999/xlink" width="17.1738" height="17.3408">
 <g>
  <rect height="17.3408" opacity="0" width="17.1738" x="0" y="0"/>
  <path d="M0 7.01367C0 10.8809 3.14648 14.0273 7.01367 14.0273C8.54297 14.0273 9.94043 13.5352 11.0918 12.709L15.416 17.042C15.6182 17.2441 15.8818 17.3408 16.1631 17.3408C16.7607 17.3408 17.1738 16.8926 17.1738 16.3037C17.1738 16.0225 17.0684 15.7676 16.8838 15.583L12.5859 11.2588C13.4912 10.0811 14.0273 8.61328 14.0273 7.01367C14.0273 3.14648 10.8809 0 7.01367 0C3.14648 0 0 3.14648 0 7.01367ZM1.50293 7.01367C1.50293 3.97266 3.97266 1.50293 7.01367 1.50293C10.0547 1.50293 12.5244 3.97266 12.5244 7.01367C12.5244 10.0547 10.0547 12.5244 7.01367 12.5244C3.97266 12.5244 1.50293 10.0547 1.50293 7.01367Z" fill="#000000"/>
 </g>
</svg>
