  <svg width="20" height="16" viewBox="0 0 20 16" fill="none" xmlns="http://www.w3.org/2000/svg">
          <path
            d="M2.70226 3.2C2.33407 3.2 2.03559 3.507 2.03559 3.88571C2.03559 4.26442 2.33407 4.57143 2.70226 4.57143H3.98611C4.3543 4.57143 4.65278 4.26442 4.65278 3.88571C4.65278 3.507 4.3543 3.2 3.98611 3.2H2.70226Z"
            fill="#272727"
          />
          <path
            d="M2.03559 6.17143C2.03559 5.79272 2.33407 5.48571 2.70226 5.48571H3.98611C4.3543 5.48571 4.65278 5.79272 4.65278 6.17143C4.65278 6.55014 4.3543 6.85714 3.98611 6.85714H2.70226C2.33407 6.85714 2.03559 6.55014 2.03559 6.17143Z"
            fill="#272727"
          />
          <path
            d="M2.70226 7.77143C2.33407 7.77143 2.03559 8.07843 2.03559 8.45714C2.03559 8.83585 2.33407 9.14286 2.70226 9.14286H3.98611C4.3543 9.14286 4.65278 8.83585 4.65278 8.45714C4.65278 8.07843 4.3543 7.77143 3.98611 7.77143H2.70226Z"
            fill="#272727"
          />
          <path
            fill-rule="evenodd"
            clip-rule="evenodd"
            d="M0.242208 1.24802C0 1.73696 0 2.37702 0 3.65714V12.3429C0 13.623 0 14.263 0.242208 14.752C0.45526 15.1821 0.795217 15.5317 1.21335 15.7509C1.68871 16 2.31099 16 3.55556 16H16.4444C17.689 16 18.3113 16 18.7866 15.7509C19.2048 15.5317 19.5447 15.1821 19.7578 14.752C20 14.263 20 13.623 20 12.3429V3.65714C20 2.37702 20 1.73696 19.7578 1.24802C19.5447 0.817937 19.2048 0.468267 18.7866 0.249128C18.3113 0 17.689 0 16.4444 0H3.55556C2.31099 0 1.68871 0 1.21335 0.249128C0.795217 0.468267 0.45526 0.817937 0.242208 1.24802ZM16.4444 1.37143H6.88889L6.88889 14.6286H16.4444C17.0887 14.6286 17.4917 14.6275 17.7954 14.602C18.0835 14.5778 18.1629 14.5386 18.1813 14.5289C18.3486 14.4413 18.4846 14.3014 18.5698 14.1294C18.5792 14.1104 18.6173 14.0288 18.6408 13.7324C18.6656 13.4201 18.6667 13.0055 18.6667 12.3429V3.65714C18.6667 2.99445 18.6656 2.57992 18.6408 2.26757C18.6173 1.97123 18.5792 1.88955 18.5698 1.87064C18.4846 1.6986 18.3486 1.55874 18.1813 1.47108C18.1629 1.46144 18.0835 1.42223 17.7954 1.39802C17.4917 1.3725 17.0887 1.37143 16.4444 1.37143ZM3.55556 1.37143H5.55556L5.55556 14.6286H3.55556C2.91127 14.6286 2.50825 14.6275 2.20458 14.602C1.91647 14.5778 1.83706 14.5386 1.81868 14.5289C1.65142 14.4413 1.51544 14.3014 1.43022 14.1294C1.42085 14.1104 1.38272 14.0288 1.35918 13.7324C1.33437 13.4201 1.33333 13.0055 1.33333 12.3429V3.65714C1.33333 2.99445 1.33437 2.57992 1.35918 2.26757C1.38272 1.97123 1.42085 1.88955 1.43022 1.87064C1.51544 1.6986 1.65142 1.55874 1.81868 1.47108C1.83706 1.46144 1.91647 1.42223 2.20458 1.39802C2.50825 1.3725 2.91127 1.37143 3.55556 1.37143Z"
            fill="#272727"
          />
        </svg>